solid Untitled-55963904
facet normal -0.6087614290087204 0.7933533402912354 0.0
  outer loop
    vertex -1.8596908345206198 1.8596908345206198 0.0
    vertex -1.3149999999999997 2.2776468119530735 -2.7800000000000002
    vertex -1.8596908345206198 1.8596908345206198 -2.7800000000000002
  endloop
endfacet
facet normal -0.6087614290087204 0.7933533402912354 0.0
  outer loop
    vertex -1.3149999999999997 2.2776468119530735 -2.7800000000000002
    vertex -1.8596908345206198 1.8596908345206198 0.0
    vertex -1.3149999999999997 2.2776468119530735 0.0
  endloop
endfacet
facet normal -0.3826834323650901 0.9238795325112867 0.0
  outer loop
    vertex -1.3149999999999997 2.2776468119530735 0.0
    vertex -0.6806940886196295 2.5403849231402496 -2.7800000000000002
    vertex -1.3149999999999997 2.2776468119530735 -2.7800000000000002
  endloop
endfacet
facet normal -0.3826834323650901 0.9238795325112867 0.0
  outer loop
    vertex -0.6806940886196295 2.5403849231402496 -2.7800000000000002
    vertex -1.3149999999999997 2.2776468119530735 0.0
    vertex -0.6806940886196295 2.5403849231402496 0.0
  endloop
endfacet
facet normal -0.13052619222005135 0.9914448613738105 0.0
  outer loop
    vertex -0.6806940886196295 2.5403849231402496 0.0
    vertex 0.0 2.6299999999999994 -2.7800000000000002
    vertex -0.6806940886196295 2.5403849231402496 -2.7800000000000002
  endloop
endfacet
facet normal -0.13052619222005135 0.9914448613738105 0.0
  outer loop
    vertex 0.0 2.6299999999999994 -2.7800000000000002
    vertex -0.6806940886196295 2.5403849231402496 0.0
    vertex 0.0 2.6299999999999994 0.0
  endloop
endfacet
facet normal 0.130526192220052 0.9914448613738105 0.0
  outer loop
    vertex 0.0 2.6299999999999994 0.0
    vertex 0.6806940886196317 2.5403849231402487 -2.7800000000000002
    vertex 0.0 2.6299999999999994 -2.7800000000000002
  endloop
endfacet
facet normal 0.130526192220052 0.9914448613738105 0.0
  outer loop
    vertex 0.6806940886196317 2.5403849231402487 -2.7800000000000002
    vertex 0.0 2.6299999999999994 0.0
    vertex 0.6806940886196317 2.5403849231402487 0.0
  endloop
endfacet
facet normal 0.3826834323650905 0.9238795325112865 0.0
  outer loop
    vertex 0.6806940886196317 2.5403849231402487 0.0
    vertex 1.315000000000001 2.2776468119530726 -2.7800000000000002
    vertex 0.6806940886196317 2.5403849231402487 -2.7800000000000002
  endloop
endfacet
facet normal 0.3826834323650905 0.9238795325112865 0.0
  outer loop
    vertex 1.315000000000001 2.2776468119530726 -2.7800000000000002
    vertex 0.6806940886196317 2.5403849231402487 0.0
    vertex 1.315000000000001 2.2776468119530726 0.0
  endloop
endfacet
facet normal 0.6087614290087211 0.793353340291235 0.0
  outer loop
    vertex 1.315000000000001 2.2776468119530726 0.0
    vertex 1.8596908345206202 1.8596908345206191 -2.7800000000000002
    vertex 1.315000000000001 2.2776468119530726 -2.7800000000000002
  endloop
endfacet
facet normal 0.6087614290087211 0.793353340291235 0.0
  outer loop
    vertex 1.8596908345206202 1.8596908345206191 -2.7800000000000002
    vertex 1.315000000000001 2.2776468119530726 0.0
    vertex 1.8596908345206202 1.8596908345206191 0.0
  endloop
endfacet
facet normal 0.7933533402912353 0.6087614290087205 0.0
  outer loop
    vertex 1.8596908345206202 1.8596908345206191 -2.7800000000000002
    vertex 2.277646811953075 1.3149999999999977 0.0
    vertex 2.277646811953075 1.3149999999999977 -2.7800000000000002
  endloop
endfacet
facet normal 0.7933533402912353 0.6087614290087205 0.0
  outer loop
    vertex 2.277646811953075 1.3149999999999977 0.0
    vertex 1.8596908345206202 1.8596908345206191 -2.7800000000000002
    vertex 1.8596908345206202 1.8596908345206191 0.0
  endloop
endfacet
facet normal 0.923879532511287 0.38268343236508956 0.0
  outer loop
    vertex 2.277646811953075 1.3149999999999977 -2.7800000000000002
    vertex 2.54038492314025 0.6806940886196283 0.0
    vertex 2.54038492314025 0.6806940886196283 -2.7800000000000002
  endloop
endfacet
facet normal 0.923879532511287 0.38268343236508956 0.0
  outer loop
    vertex 2.54038492314025 0.6806940886196283 0.0
    vertex 2.277646811953075 1.3149999999999977 -2.7800000000000002
    vertex 2.277646811953075 1.3149999999999977 0.0
  endloop
endfacet
facet normal 0.9914448613738106 0.13052619222005102 0.0
  outer loop
    vertex 2.54038492314025 0.6806940886196283 -2.7800000000000002
    vertex 2.63 -4.831231622636307e-16 0.0
    vertex 2.63 -4.831231622636307e-16 -2.7800000000000002
  endloop
endfacet
facet normal 0.9914448613738106 0.13052619222005102 0.0
  outer loop
    vertex 2.63 -4.831231622636307e-16 0.0
    vertex 2.54038492314025 0.6806940886196283 -2.7800000000000002
    vertex 2.54038492314025 0.6806940886196283 0.0
  endloop
endfacet
facet normal 0.9914448613738105 -0.13052619222005213 0.0
  outer loop
    vertex 2.63 -4.831231622636307e-16 -2.7800000000000002
    vertex 2.540384923140249 -0.6806940886196315 0.0
    vertex 2.540384923140249 -0.6806940886196315 -2.7800000000000002
  endloop
endfacet
facet normal 0.9914448613738105 -0.13052619222005213 0.0
  outer loop
    vertex 2.540384923140249 -0.6806940886196315 0.0
    vertex 2.63 -4.831231622636307e-16 -2.7800000000000002
    vertex 2.63 -4.831231622636307e-16 0.0
  endloop
endfacet
facet normal 0.9238795325112865 -0.3826834323650905 0.0
  outer loop
    vertex 2.540384923140249 -0.6806940886196315 -2.7800000000000002
    vertex 2.277646811953073 -1.3150000000000008 0.0
    vertex 2.277646811953073 -1.3150000000000008 -2.7800000000000002
  endloop
endfacet
facet normal 0.9238795325112865 -0.3826834323650905 0.0
  outer loop
    vertex 2.277646811953073 -1.3150000000000008 0.0
    vertex 2.540384923140249 -0.6806940886196315 -2.7800000000000002
    vertex 2.540384923140249 -0.6806940886196315 0.0
  endloop
endfacet
facet normal 0.7933533402912348 -0.6087614290087213 0.0
  outer loop
    vertex 2.277646811953073 -1.3150000000000008 -2.7800000000000002
    vertex 1.859690834520619 -1.8596908345206207 0.0
    vertex 1.859690834520619 -1.8596908345206207 -2.7800000000000002
  endloop
endfacet
facet normal 0.7933533402912348 -0.6087614290087213 0.0
  outer loop
    vertex 1.859690834520619 -1.8596908345206207 0.0
    vertex 2.277646811953073 -1.3150000000000008 -2.7800000000000002
    vertex 2.277646811953073 -1.3150000000000008 0.0
  endloop
endfacet
facet normal 0.6087614290087204 -0.7933533402912354 0.0
  outer loop
    vertex 1.859690834520619 -1.8596908345206207 0.0
    vertex 1.3149999999999993 -2.2776468119530735 -2.7800000000000002
    vertex 1.859690834520619 -1.8596908345206207 -2.7800000000000002
  endloop
endfacet
facet normal 0.6087614290087204 -0.7933533402912354 0.0
  outer loop
    vertex 1.3149999999999993 -2.2776468119530735 -2.7800000000000002
    vertex 1.859690834520619 -1.8596908345206207 0.0
    vertex 1.3149999999999993 -2.2776468119530735 0.0
  endloop
endfacet
facet normal 0.3826834323650898 -0.9238795325112867 0.0
  outer loop
    vertex 1.3149999999999993 -2.2776468119530735 0.0
    vertex 0.6806940886196285 -2.54038492314025 -2.7800000000000002
    vertex 1.3149999999999993 -2.2776468119530735 -2.7800000000000002
  endloop
endfacet
facet normal 0.3826834323650898 -0.9238795325112867 0.0
  outer loop
    vertex 0.6806940886196285 -2.54038492314025 -2.7800000000000002
    vertex 1.3149999999999993 -2.2776468119530735 0.0
    vertex 0.6806940886196285 -2.54038492314025 0.0
  endloop
endfacet
facet normal 0.13052619222005096 -0.9914448613738105 0.0
  outer loop
    vertex 0.6806940886196285 -2.54038492314025 0.0
    vertex -3.220821081757539e-16 -2.6299999999999994 -2.7800000000000002
    vertex 0.6806940886196285 -2.54038492314025 -2.7800000000000002
  endloop
endfacet
facet normal 0.13052619222005096 -0.9914448613738105 0.0
  outer loop
    vertex -3.220821081757539e-16 -2.6299999999999994 -2.7800000000000002
    vertex 0.6806940886196285 -2.54038492314025 0.0
    vertex -3.220821081757539e-16 -2.6299999999999994 0.0
  endloop
endfacet
facet normal -0.1305261922200518 -0.9914448613738105 -0.0
  outer loop
    vertex -3.220821081757539e-16 -2.6299999999999994 0.0
    vertex -0.6806940886196302 -2.540384923140249 -2.7800000000000002
    vertex -3.220821081757539e-16 -2.6299999999999994 -2.7800000000000002
  endloop
endfacet
facet normal -0.1305261922200518 -0.9914448613738105 -0.0
  outer loop
    vertex -0.6806940886196302 -2.540384923140249 -2.7800000000000002
    vertex -3.220821081757539e-16 -2.6299999999999994 0.0
    vertex -0.6806940886196302 -2.540384923140249 0.0
  endloop
endfacet
facet normal -0.38268343236508984 -0.9238795325112867 -0.0
  outer loop
    vertex -0.6806940886196302 -2.540384923140249 0.0
    vertex -1.3150000000000008 -2.277646811953073 -2.7800000000000002
    vertex -0.6806940886196302 -2.540384923140249 -2.7800000000000002
  endloop
endfacet
facet normal -0.38268343236508984 -0.9238795325112867 -0.0
  outer loop
    vertex -1.3150000000000008 -2.277646811953073 -2.7800000000000002
    vertex -0.6806940886196302 -2.540384923140249 0.0
    vertex -1.3150000000000008 -2.277646811953073 0.0
  endloop
endfacet
facet normal -0.6087614290087209 -0.7933533402912349 -0.0
  outer loop
    vertex -1.3150000000000008 -2.277646811953073 0.0
    vertex -1.8596908345206202 -1.8596908345206196 -2.7800000000000002
    vertex -1.3150000000000008 -2.277646811953073 -2.7800000000000002
  endloop
endfacet
facet normal -0.6087614290087209 -0.7933533402912349 -0.0
  outer loop
    vertex -1.8596908345206202 -1.8596908345206196 -2.7800000000000002
    vertex -1.3150000000000008 -2.277646811953073 0.0
    vertex -1.8596908345206202 -1.8596908345206196 0.0
  endloop
endfacet
facet normal -0.7933533402912356 -0.6087614290087203 -0.0
  outer loop
    vertex -2.2776468119530735 -1.3149999999999993 0.0
    vertex -1.8596908345206202 -1.8596908345206196 -2.7800000000000002
    vertex -1.8596908345206202 -1.8596908345206196 0.0
  endloop
endfacet
facet normal -0.7933533402912356 -0.6087614290087203 -0.0
  outer loop
    vertex -1.8596908345206202 -1.8596908345206196 -2.7800000000000002
    vertex -2.2776468119530735 -1.3149999999999993 0.0
    vertex -2.2776468119530735 -1.3149999999999993 -2.7800000000000002
  endloop
endfacet
facet normal -0.9238795325112867 -0.38268343236509017 -0.0
  outer loop
    vertex -2.54038492314025 -0.6806940886196292 0.0
    vertex -2.2776468119530735 -1.3149999999999993 -2.7800000000000002
    vertex -2.2776468119530735 -1.3149999999999993 0.0
  endloop
endfacet
facet normal -0.9238795325112867 -0.38268343236509017 -0.0
  outer loop
    vertex -2.2776468119530735 -1.3149999999999993 -2.7800000000000002
    vertex -2.54038492314025 -0.6806940886196292 0.0
    vertex -2.54038492314025 -0.6806940886196292 -2.7800000000000002
  endloop
endfacet
facet normal -0.9914448613738106 -0.1305261922200514 -0.0
  outer loop
    vertex -2.63 1.6104105408787692e-16 0.0
    vertex -2.54038492314025 -0.6806940886196292 -2.7800000000000002
    vertex -2.54038492314025 -0.6806940886196292 0.0
  endloop
endfacet
facet normal -0.9914448613738106 -0.1305261922200514 -0.0
  outer loop
    vertex -2.54038492314025 -0.6806940886196292 -2.7800000000000002
    vertex -2.63 1.6104105408787692e-16 0.0
    vertex -2.63 1.6104105408787692e-16 -2.7800000000000002
  endloop
endfacet
facet normal -0.9914448613738105 0.1305261922200518 0.0
  outer loop
    vertex -2.5403849231402496 0.6806940886196301 0.0
    vertex -2.63 1.6104105408787692e-16 -2.7800000000000002
    vertex -2.63 1.6104105408787692e-16 0.0
  endloop
endfacet
facet normal -0.9914448613738105 0.1305261922200518 0.0
  outer loop
    vertex -2.63 1.6104105408787692e-16 -2.7800000000000002
    vertex -2.5403849231402496 0.6806940886196301 0.0
    vertex -2.5403849231402496 0.6806940886196301 -2.7800000000000002
  endloop
endfacet
facet normal -0.9238795325112868 0.38268343236508967 0.0
  outer loop
    vertex -2.2776468119530735 1.3150000000000002 0.0
    vertex -2.5403849231402496 0.6806940886196301 -2.7800000000000002
    vertex -2.5403849231402496 0.6806940886196301 0.0
  endloop
endfacet
facet normal -0.9238795325112868 0.38268343236508967 0.0
  outer loop
    vertex -2.5403849231402496 0.6806940886196301 -2.7800000000000002
    vertex -2.2776468119530735 1.3150000000000002 0.0
    vertex -2.2776468119530735 1.3150000000000002 -2.7800000000000002
  endloop
endfacet
facet normal -0.793353340291235 0.6087614290087211 0.0
  outer loop
    vertex -1.8596908345206198 1.8596908345206198 0.0
    vertex -2.2776468119530735 1.3150000000000002 -2.7800000000000002
    vertex -2.2776468119530735 1.3150000000000002 0.0
  endloop
endfacet
facet normal -0.793353340291235 0.6087614290087211 0.0
  outer loop
    vertex -2.2776468119530735 1.3150000000000002 -2.7800000000000002
    vertex -1.8596908345206198 1.8596908345206198 0.0
    vertex -1.8596908345206198 1.8596908345206198 -2.7800000000000002
  endloop
endfacet
endsolid Untitled-55963904
